# xmcd CD database file
#
# Track frame offsets:
#	150
#	10679
#	22359
#	36590
#	50609
#	59470
#	71165
#	83635
#	97117
#	105139
#	119444
#	129128
#	146588
#	162809
#
# Disc length: 2285 seconds
#
# Revision: 0
# Processed by: cddbd v1.5.2PL0 Copyright (c) Steve Scherf et al.
# Submitted via: CDex 1.51
#
DISCID=be08eb0e
DTITLE=Les Matous  - Le cha-cha- cha des thons 
DYEAR=2010
DGENRE=Enfants
TTITLE0=Le cha-cha- cha des thons
TTITLE1=Les pieds
TTITLE2=Là où y'a des frites
TTITLE3=Andréa c'est toi?
TTITLE4=La polka Martin
TTITLE5=La douche municipale
TTITLE6=Aragon et Castille
TTITLE7=Mes tics
TTITLE8=Wada?!
TTITLE9=La queue du chat
TTITLE10=Derrière chez moi?
TTITLE11=A bicyclette
TTITLE12=Le grand métingue du métropolitain
TTITLE13=Les matous
EXTD=YEAR: 2010
EXTT0=
EXTT1=
EXTT2=
EXTT3=
EXTT4=
EXTT5=
EXTT6=
EXTT7=
EXTT8=
EXTT9=
EXTT10=
EXTT11=
EXTT12=
EXTT13=
PLAYORDER=
